<svg xmlns="http://www.w3.org/2000/svg" width="66" height="19" viewBox="0 0 66 19" fill="none">
  <path d="M9.60008 17.204C8.62599 17.3751 7.63477 17.4264 6.60941 17.563L3.48189 8.40287V17.9561C2.5078 18.0586 1.61915 18.1953 0.696289 18.332V0.832031H3.29402L6.84863 10.7614V0.832031H9.60008V17.204ZM14.9834 7.24073C16.043 7.24073 17.6666 7.18944 18.6406 7.18944V9.92376C17.4272 9.92376 16.0088 9.92376 14.9834 9.97504V14.0425C16.5899 13.94 18.1964 13.8031 19.8198 13.7519V16.3835L12.249 16.9818V0.832031H19.8198V3.56641H14.9834V7.24073ZM29.9882 3.56647H27.1514V16.1446C26.2285 16.1446 25.3056 16.1446 24.4171 16.1787V3.56647H21.5802V0.832031H29.9884L29.9882 3.56647ZM34.4316 7.05279H38.1743V9.7871H34.4316V15.9908H31.7483V0.832031H39.3877V3.56641H34.4316V7.05279ZM43.831 13.5981C45.3862 13.6322 46.9584 13.7521 48.4795 13.8374V16.5376C46.0357 16.3837 43.5918 16.2301 41.0967 16.1787V0.832031H43.831V13.5981ZM50.7866 16.7256C51.6581 16.7769 52.581 16.8282 53.4697 16.9306V0.832031H50.7866V16.7256ZM65.4497 0.832031L61.9804 9.15481L65.4497 18.332C64.4243 18.1953 63.3989 18.0073 62.3735 17.8364L60.4082 12.7779L58.4089 17.4264C57.4175 17.2553 56.4605 17.204 55.4694 17.0673L58.9899 9.05218L55.8111 0.832031H58.7504L60.5449 5.42921L62.459 0.832031H65.4497V0.832031Z" fill="#4C4C4D"/>
</svg>